<svg class="icon__svg" width="195" height="70" viewBox="0 0 195 70" fill="none" xmlns="http://www.w3.org/2000/svg">
<g id="variant=outlines" clip-path="url(#clip0_834_330)">
<path id="Path 7174" d="M73.6934 14.3733C74.6181 13.6915 75.3704 12.8026 75.89 11.7779C76.4095 10.7532 76.6821 9.62113 76.6856 8.47224C76.6856 3.75179 73.2715 0.424923 67.0338 0.424923H57.8029V30.3482H67.7502C74.1154 30.3482 78.3717 27.2716 78.3717 21.7121C78.3253 20.1808 77.8661 18.6905 77.0426 17.3987C76.2192 16.107 75.062 15.0616 73.6934 14.3733ZM62.9875 5.31123H67.0338C69.815 5.31123 71.502 6.48886 71.502 8.76763C71.502 11.17 69.816 12.2241 67.0338 12.2241H62.9875V5.31123ZM67.7502 25.459H62.9875V17.1172H67.8768C71.291 17.1172 73.188 18.8837 73.188 21.4167C73.188 23.9496 71.292 25.458 67.7511 25.458L67.7502 25.459ZM103.73 10.7069C103.73 4.30039 98.6716 0.421958 93.2347 0.421958H81.9822V30.3482H87.1668V20.9486H92.4378L98.1701 30.3482H104.029L97.7068 20.0211C99.5333 19.2572 101.086 17.9588 102.161 16.2963C103.236 14.6338 103.783 12.685 103.731 10.7059L103.73 10.7069ZM93.2347 16.0603H87.1649V5.31123H93.2347C94.6422 5.33813 95.983 5.91614 96.9689 6.92104C97.9548 7.92594 98.507 9.2775 98.507 10.6853C98.507 12.093 97.9548 13.4446 96.9689 14.4495C95.983 15.4544 94.6422 16.0334 93.2347 16.0603ZM113.229 30.3492H108.042V0.421H113.226L113.229 30.3492ZM142.719 15.3861C142.719 6.99821 136.818 0.422947 128.303 0.422947H118.02V30.3482H128.303C136.818 30.3482 142.719 23.772 142.719 15.3841V15.3861ZM123.204 5.31123H128.307C133.492 5.31123 137.538 8.89424 137.538 15.3851C137.538 21.876 133.492 25.459 128.307 25.459H123.204V5.31123ZM158.703 13.7413H175.1C175.1 24.4472 168.903 30.7702 159.968 30.7702C151.453 30.7702 145.173 23.773 145.173 15.3851C145.131 13.3532 145.5 11.3337 146.258 9.44805C147.016 7.5624 148.148 5.84956 149.585 4.41248C151.022 2.97539 152.735 1.84376 154.62 1.08564C156.506 0.327518 158.526 -0.0414285 160.557 0.000959816C162.867 -0.0154647 165.146 0.532687 167.195 1.59774C169.245 2.6628 171.003 4.21248 172.317 6.11201L168.398 9.14744C167.549 7.84125 166.387 6.76772 165.018 6.02429C163.648 5.28086 162.115 4.89105 160.557 4.8902C154.571 4.8902 150.357 9.52625 150.357 15.3851C150.357 21.2439 154.278 25.881 159.968 25.881C162.156 25.9925 164.313 25.3258 166.057 23.9988C167.8 22.6718 169.017 20.7704 169.493 18.6315H158.698L158.703 13.7413ZM183.318 5.31123V12.6451H192.422V17.5343H183.314V25.458H194.905V30.3472H178.133V0.421H194.909V5.31024L183.318 5.31123ZM57.85 39.6027H74.6257V44.4919H63.0347V52.0368H72.9819V56.926H63.0347V69.5289H57.85V39.6027ZM97.488 39.6027H102.673V56.715C102.673 65.8615 98.12 69.9499 90.6596 69.9499C83.1569 69.9499 78.6052 65.8615 78.6052 56.715V39.6027H83.7899V56.715C83.7899 62.8693 86.3189 65.0568 90.6596 65.0568C95.0002 65.0568 97.488 62.8653 97.488 56.715V39.6027ZM127.66 39.6027H132.843V69.5289H127.66L112.485 48.3311V69.5289H107.301V39.6027H112.485L127.66 60.8005V39.6027ZM147.614 39.6027H137.329V69.5289H147.613C156.128 69.5289 162.029 62.9537 162.029 54.5658C162.029 46.1779 156.13 39.6027 147.614 39.6027ZM147.614 64.6397H142.511V44.4919H147.614C152.799 44.4919 156.845 48.0749 156.845 54.5658C156.845 61.0566 152.798 64.6367 147.613 64.6367L147.614 64.6397ZM23.5154 0.0195883H0.700204V22.8348C0.696455 27.1465 1.92202 31.3699 4.23318 35.0098C1.92207 38.6498 0.696509 42.8731 0.700204 47.1848V70H23.5154C27.597 70.002 31.6044 68.9086 35.1194 66.8337C38.6343 64.7589 41.5279 61.7786 43.4982 58.2041C45.4686 54.6295 46.4435 50.5916 46.3211 46.5118C46.1987 42.432 44.9835 38.4598 42.8025 35.0098C44.9835 31.5598 46.1987 27.5876 46.3211 23.5078C46.4435 19.4279 45.4686 15.3901 43.4982 11.8155C41.5279 8.24092 38.6343 5.2607 35.1194 3.18584C31.6044 1.11097 27.597 0.0175133 23.5154 0.0195883ZM5.30193 22.8632V4.62131H23.5154C26.6355 4.62073 29.7035 5.42188 32.425 6.94793C35.1465 8.47398 37.4302 10.6737 39.0571 13.3362C40.684 15.9986 41.5995 19.0344 41.7157 22.1524C41.832 25.2704 41.145 28.366 39.7209 31.1422C37.6024 28.9967 35.0791 27.2932 32.2971 26.1305C29.5152 24.9679 26.53 24.3692 23.5149 24.3692C20.4997 24.3692 17.5146 24.9679 14.7327 26.1305C11.9507 27.2932 9.42731 28.9967 7.30884 31.1422C5.99072 28.5815 5.3027 25.7432 5.30193 22.8632ZM37.0496 35.0098C35.344 36.9101 33.2574 38.43 30.9256 39.4704C28.5937 40.5108 26.0688 41.0486 23.5154 41.0486C20.9619 41.0486 18.4371 40.5108 16.1052 39.4704C13.7733 38.43 11.6867 36.9101 9.98113 35.0098C11.6867 33.1095 13.7733 31.5896 16.1052 30.5492C18.4371 29.5087 20.9619 28.971 23.5154 28.971C26.0688 28.971 28.5937 29.5087 30.9256 30.5492C33.2574 31.5896 35.344 33.1095 37.0496 35.0098ZM41.7288 47.1848C41.7234 52.0085 39.8067 56.6334 36.3986 60.0469C32.9904 63.4604 28.3685 65.3843 23.5448 65.3973H5.30193V47.1838C5.29836 44.2942 5.98649 41.4457 7.30884 38.8764C9.42731 41.0219 11.9507 42.7254 14.7327 43.8881C17.5146 45.0507 20.4997 45.6494 23.5149 45.6494C26.53 45.6494 29.5152 45.0507 32.2971 43.8881C35.0791 42.7254 37.6024 41.0219 39.7209 38.8764C41.0436 41.4456 41.7321 44.2951 41.7288 47.1848Z" fill="#FDF2E6"></path>
</g>
<defs>
<clipPath id="clip0_834_330">
<rect width="194.21" height="70" fill="white" transform="translate(0.700195)"></rect>
</clipPath>
</defs>
</svg>