<svg xmlns="http://www.w3.org/2000/svg" style="transform:scale(1.1)" viewBox="0 0 1127.9 323.7" class="styles_logoDesktop__z4fvk styles_iconContainer__jQAEn"><path fill="#1D3F86" d="m123.8 193.4 50-22 46 24.5 1.5-47-47.5-23-50 16v51.5z"></path><path fill="#04A9F5" d="M174.3 62.4c-57.6 0-104.4 44.8-104.4 100s46.7 100 104.4 100c57.6 0 104.4-44.8 104.4-100-.1-55.3-46.8-100-104.4-100zm0 14.9c49 0 88.8 38.2 88.8 85.1 0 46.9-39.8 85.1-88.8 85.1s-88.8-38.2-88.8-85.1c0-47 39.8-85.1 88.8-85.1z"></path><path fill="#80D4FA" d="m154.7 118.1 7.9 12.8 16.8 27.5 41.9-18.6-24.7-40.2-41.9 18.5z"></path><path fill="#04A9F5" d="m142.5 123.9-19 17.4v52.5l11.2 5.8v-37.3L151 171v37.3l16.2 8.4v-52.5l-16.9-27.8-.1-.1-7.7-12.4z"></path><path fill="#0288D1" d="M188.3 198.4v-26.1l25.7-11.9v26.1l-7.5 3.4-18.2 8.5zm-8.9-30.8v48.8l41.9-18.6V149l-41.9 18.6z"></path><path fill="#333" d="M1043.7 130.5h-14.5v79.3h16.1v-36.7c0-.6 0-1.2.1-1.7.2-16.2 6.9-24.2 20.2-23.9v-19.3c-9.9.5-17.2 6.1-21.8 16.6v-14.3zm-48.8 16.3c3 3.6 4.5 8.3 4.6 14h-32.2c.5-6.1 2.3-10.9 5.2-14.3 3-3.4 6.6-5.1 11.1-5.1 4.4 0 8.2 1.8 11.3 5.4zm-10.5-17.9c-10.4 0-18.7 3.9-24.7 11.8s-9.1 17.8-9.1 29.8c0 12.6 3 22.6 9 29.9 6 7.4 14 11.1 23.8 11.1 8.2 0 15.1-2.3 20.6-7 5.5-4.7 9.1-10.6 11-17.8l-14.5-2.2c-2.8 8.6-8.1 12.8-16.1 12.8-4.1 0-7.6-1.2-10.3-3.6-2.7-2.4-4.5-5.2-5.5-8.4-.9-3.2-1.4-7.6-1.4-13h48.9l.1-2c0-12.2-2.8-22.2-8.4-29.9-5.4-7.6-13.2-11.5-23.4-11.5zM878 130.5v79.3h16V169c0-8.2 1.6-14.4 4.7-18.4 3.1-4.1 6.8-6.1 11.1-6.1 3.1 0 5.7 1.3 7.9 4 2.1 2.7 3.2 6.6 3.2 11.8v49.6H937v-51.2c0-11-2.3-18.8-6.7-23.2-4.4-4.4-9.8-6.6-16.1-6.6-9.2 0-16.4 4.6-21.6 13.9v-12.3H878zm-60.4 38.6c0-8.2 1.6-14.4 4.7-18.4 3.1-4.1 6.8-6.1 11.1-6.1 3.1 0 5.7 1.3 7.9 4 2.1 2.7 3.2 6.6 3.2 11.8V210h16.1v-51.2c0-11-2.3-18.8-6.7-23.2-4.4-4.4-9.8-6.6-16.1-6.6-9.2 0-16.4 4.6-21.6 13.9v-12.3h-14.7v79.3h16.1v-40.8zm-76.8 25.4c-2.1-2.4-3.2-5.2-3.2-8.5 0-11 10.4-16.5 31.2-16.5v7.3c0 5.5-1.5 10.4-4.7 14.7s-7.8 6.5-13.9 6.5c-4.2 0-7.3-1.2-9.4-3.5zm42.4-50.9c-.9-2.9-2.6-5.6-5-7.9-2.4-2.5-5.3-4.2-8.8-5.2-3.5-1.1-8-1.6-13.5-1.6-10.2 0-18 2.2-23.3 6.4-5.4 4.3-8.4 9.7-9.2 16.3l13.7 2.2c1.3-8.2 6.8-12.3 16.7-12.3 10.1 0 15.1 4.1 15.1 12.3v6c-2-.1-3.5-.1-4.6-.1-28.7 0-43.1 9.1-43.1 27.3 0 7 2.2 12.8 6.5 17.5 4.3 4.6 10 6.9 17.1 6.9 11.9 0 20-3.8 24.5-11.3v9.7h15.3V158c-.1-6.8-.5-11.6-1.4-14.4zm-93 66.2h16.1V102.7h-16.1v107.1zm-31.7-39c0 7.7-1.2 14.1-3.6 19.1-2.4 5-6.1 7.4-11.3 7.4-3.8 0-7.2-1.9-10.3-5.6-3.1-3.8-4.7-8.7-4.7-14.4V166c0-6.7 1.5-12.1 4.5-16.2s6.6-6.2 10.9-6.2c4.7 0 8.3 2.5 10.7 7.6 2.6 5 3.9 11.6 3.8 19.6zm17.1-1.2c0-11.9-2.3-21.6-7.1-29.3-4.7-7.6-11-11.5-18.9-11.5-9.6 0-16.9 4.2-21.8 12.6v-11h-15.4v106.1h16.4v-36.2c4.1 7.4 10.8 11.1 20 11.1 8.9 0 15.6-4.2 20.1-12.5 4.5-8.2 6.7-18 6.7-29.3zm-80.4-41.4c-9.9.5-17.2 6.1-21.8 16.6v-14.3h-14.5v79.3H575v-36.7c0-.6 0-1.2.1-1.7.2-16.2 6.9-24.2 20.2-23.9v-19.3zm-84 15.4c5.4 0 9.4 2.4 11.9 7.1 2.6 4.6 3.9 11 3.9 19.1 0 18-5.5 26.9-16.3 26.9-1 0-2-.1-2.9-.3-3.6-.7-6.5-2.9-8.7-6.5-2.8-4.5-4.3-11.2-4.3-19.8 0-8 1.3-14.4 4-19.2 2.1-3.8 5.2-6.1 9-6.9 1.2-.3 2.2-.4 3.4-.4zm-3.3-14.6c-8.5.8-15.5 4.7-20.9 11.5-6.2 7.8-9.2 17.5-9.2 29.3 0 10.9 2.8 20.6 8.3 29 5.2 7.8 12.4 12 21.8 12.6.8.1 1.5.1 2.3.1 9.8 0 17.9-3.8 24.3-11.4 6.4-7.6 9.6-17.8 9.6-30.2 0-12.1-3.1-22-9.2-29.6-6.2-7.6-14-11.4-23.6-11.4-1.2 0-2.3 0-3.4.1zm-73.1 14.6c5.4 0 9.4 2.4 11.9 7.1 2.6 4.6 3.9 11 3.9 19.1 0 18-5.5 26.9-16.3 26.9-4.9 0-8.8-2.2-11.6-6.8-2.8-4.5-4.3-11.2-4.3-19.8 0-8 1.3-14.4 4-19.2 2.7-4.9 6.9-7.3 12.4-7.3zm23.6-3.3c-6.2-7.6-14-11.4-23.6-11.4-10.1 0-18.2 3.9-24.3 11.7-6.2 7.8-9.2 17.5-9.2 29.3 0 10.9 2.8 20.6 8.3 29 5.6 8.4 13.6 12.6 24.1 12.6 9.8 0 17.9-3.8 24.3-11.4 6.4-7.6 9.6-17.8 9.6-30.2.1-12.2-3-22.1-9.2-29.6zm-87.9 69.5h16.1V102.7h-16.1v107.1zm-27.6-79.3c0-4.9.1-8.2.4-9.7.3-1.7 1.2-3 2.8-4.2 1.6-1.2 4.4-1.8 8.4-1.8.7 0 2.1.1 4.1.3V101c-2.3-.1-4.2-.1-5.7-.1-10.3 0-17.1 2.4-20.5 7.1-3.4 4.7-5.1 11-5.1 18.7v3.9h-10.6v13.9h10.6v65.4h15.6v-65.4h15.8v-13.9l-15.8-.1z"></path></svg>